<svg width="64" height="64" viewBox="0 0 64 64" fill="none" xmlns="http://www.w3.org/2000/svg">
<path d="M54.5 36.3125L58.9062 16.8125C59.1875 15.4062 58.1562 14 56.6562 14H19.9062L19.0625 9.875C18.7812 8.84375 17.8438 8 16.8125 8H7.25C5.9375 8 5 9.03125 5 10.25V11.75C5 13.0625 5.9375 14 7.25 14H13.7188L20.375 46.25C18.7812 47.1875 17.75 48.875 17.75 50.75C17.75 53.6562 20.0938 56 23 56C25.8125 56 28.25 53.6562 28.25 50.75C28.25 49.3438 27.5938 48.0312 26.6562 47H46.25C45.3125 48.0312 44.75 49.3438 44.75 50.75C44.75 53.6562 47.0938 56 50 56C52.8125 56 55.25 53.6562 55.25 50.75C55.25 48.6875 54.0312 46.9062 52.25 46.0625L52.7188 43.8125C53.0938 42.4062 51.9688 41 50.5625 41H25.4375L24.7812 38H52.25C53.2812 38 54.2188 37.3438 54.5 36.3125Z" fill="white" fill-opacity="0.5"/>
</svg>
