<svg width="300" height="85" viewBox="0 0 300 85" fill="none" xmlns="http://www.w3.org/2000/svg">
<path d="M15.2525 48.88C15.2525 51.824 17.3645 53.296 21.5885 53.296C25.8552 53.296 27.9885 51.9733 27.9885 49.328C27.9885 47.92 27.2632 46.768 25.8125 45.872C24.3618 44.976 22.5912 44.2293 20.5005 43.632C18.4525 43.0347 16.3832 42.352 14.2925 41.584C12.2445 40.7733 10.4952 39.536 9.0445 37.872C7.59383 36.1653 6.8685 34.0533 6.8685 31.536C6.8685 20.8267 13.7592 15.472 27.5405 15.472C32.5752 15.472 36.3725 16.432 38.9325 18.352C41.5352 20.2293 42.8365 22.8533 42.8365 26.224C42.8365 27.4613 42.6658 28.656 42.3245 29.808C42.0258 30.9173 41.7058 31.7067 41.3645 32.176L40.8525 32.944H29.5245C30.4632 31.9627 30.9325 30.7253 30.9325 29.232C30.9325 26.4587 29.1192 25.072 25.4925 25.072C20.9272 25.072 18.6445 26.5227 18.6445 29.424C18.6445 30.8747 19.3698 32.0267 20.8205 32.88C22.2712 33.7333 24.0205 34.416 26.0685 34.928C28.1592 35.3973 30.2498 35.9947 32.3405 36.72C34.4312 37.4453 36.2018 38.6613 37.6525 40.368C39.1032 42.032 39.8285 44.208 39.8285 46.896C39.8285 52.3147 38.2072 56.3467 34.9645 58.992C31.7218 61.5947 26.7298 62.896 19.9885 62.896C13.2472 62.896 8.63917 61.7013 6.1645 59.312C4.32983 57.52 3.4125 55.0453 3.4125 51.888C3.4125 50.6933 3.5405 49.392 3.7965 47.984L3.9885 46.96H15.5085L15.3805 47.728C15.2952 48.1547 15.2525 48.5387 15.2525 48.88ZM77.9365 53.808C78.9178 53.808 79.7925 53.5947 80.5605 53.168L80.2405 60.4C78.2352 62.064 75.9525 62.896 73.3925 62.896C67.5898 62.896 64.6885 60.464 64.6885 55.6C64.6885 54.7467 64.7738 53.8293 64.9445 52.848L66.3525 44.976C66.4805 44.208 66.5445 43.44 66.5445 42.672C66.5445 40.624 65.4565 39.6 63.2805 39.6C61.1472 39.6 59.4832 40.3253 58.2885 41.776L54.7045 62H43.8245L52.4005 13.424H63.2805L59.6325 34.096C61.9792 31.5787 64.9232 30.32 68.4645 30.32C72.7738 30.32 75.5685 31.28 76.8485 33.2C77.7445 34.48 78.1925 35.9093 78.1925 37.488C78.1925 39.0667 78.0645 40.5173 77.8085 41.84L76.0805 51.376C76.0378 51.632 76.0165 51.8667 76.0165 52.08C76.0165 53.232 76.6565 53.808 77.9365 53.808ZM103.482 30.32C108.09 30.32 111.567 31.3227 113.914 33.328C115.748 34.9067 116.666 37.104 116.666 39.92C116.666 40.8587 116.559 41.8827 116.346 42.992L115.002 50.48C114.191 55.0027 112.292 58.2027 109.306 60.08C106.362 61.9573 102.415 62.896 97.4655 62.896C92.5162 62.896 88.8895 61.9573 86.5855 60.08C84.8788 58.672 84.0255 56.56 84.0255 53.744C84.0255 52.7627 84.1322 51.6747 84.3455 50.48L85.6895 42.992C87.1828 34.544 93.1135 30.32 103.482 30.32ZM105.21 44.272C105.295 43.8453 105.338 43.312 105.338 42.672C105.338 41.9893 105.06 41.2427 104.506 40.432C103.951 39.6213 102.97 39.216 101.562 39.216C100.196 39.216 99.0442 39.6853 98.1055 40.624C97.1668 41.52 96.5695 42.736 96.3135 44.272L95.4815 49.072C95.3962 49.4987 95.3535 50.0533 95.3535 50.736C95.3535 51.376 95.6308 52.08 96.1855 52.848C96.7402 53.616 97.7002 54 99.0655 54C100.474 54 101.647 53.5307 102.586 52.592C103.524 51.6107 104.122 50.4373 104.378 49.072L105.21 44.272ZM142.679 30.384C147.031 30.384 150.039 31.536 151.703 33.84C152.897 35.4187 153.495 37.424 153.495 39.856C153.495 40.8373 153.388 41.8827 153.175 42.992L151.895 50.48C151.169 54.5333 149.612 57.6267 147.223 59.76C144.833 61.8507 141.847 62.896 138.263 62.896C134.679 62.896 132.183 61.936 130.775 60.016L127.319 79.792H116.438L125.015 31.216H134.871L134.551 32.944C136.556 31.2373 139.265 30.384 142.679 30.384ZM136.023 53.68C137.217 53.68 138.327 53.296 139.351 52.528C140.375 51.76 141.015 50.608 141.271 49.072L142.103 44.272C142.188 43.8453 142.231 43.312 142.231 42.672C142.231 42.032 141.953 41.3493 141.399 40.624C140.844 39.8987 139.884 39.536 138.519 39.536C136.3 39.536 134.849 40.0693 134.167 41.136L132.247 51.888C132.844 53.0827 134.103 53.68 136.023 53.68Z" fill="url(#paint0_linear_92_4)"/>
<path d="M191.906 21.104C190.711 21.104 189.644 21.1253 188.706 21.168C187.81 21.2107 186.508 21.3173 184.802 21.488C183.095 21.616 181.644 21.9147 180.45 22.384C179.298 22.8107 178.082 23.3867 176.802 24.112C174.284 25.5627 172.706 27.9733 172.066 31.344L168.866 49.392C168.78 49.9467 168.738 50.6507 168.738 51.504C168.738 52.3147 169.036 53.296 169.634 54.448C170.231 55.6 171.148 56.5387 172.385 57.264C173.623 57.9893 175.138 58.5867 176.93 59.056C179.703 59.7387 182.775 60.08 186.146 60.08C189.516 60.08 192.738 59.824 195.81 59.312C198.882 58.8 201.1 58.288 202.466 57.776L204.514 56.944L206.178 66.224C203.362 67.12 199.671 67.9733 195.106 68.784C190.583 69.5947 186.85 70 183.906 70C173.666 70 166.434 68.1867 162.21 64.56C158.967 61.7867 157.346 57.9467 157.346 53.04C157.346 51.5467 157.495 49.968 157.794 48.304L160.802 31.344C161.868 25.328 165.154 20.464 170.658 16.752C176.204 13.04 184.098 11.184 194.338 11.184C199.244 11.184 203.447 11.696 206.946 12.72C210.487 13.744 213.175 15.1947 215.01 17.072C217.911 19.9733 219.362 23.4507 219.362 27.504C219.362 28.5707 219.255 29.68 219.042 30.832L218.018 36.912C217.036 42.5867 214.626 46.896 210.786 49.84C206.946 52.784 202.402 54.256 197.154 54.256C193.228 54.256 191.01 52.784 190.498 49.84C189.9 50.9067 188.919 51.9093 187.554 52.848C186.188 53.7867 184.439 54.256 182.306 54.256C178.935 54.256 176.546 53.3387 175.138 51.504C174.114 50.2667 173.602 48.6027 173.602 46.512C173.602 45.6587 173.687 44.72 173.858 43.696L174.946 37.36C175.543 34.0747 176.887 31.472 178.978 29.552C181.111 27.5893 183.842 26.608 187.17 26.608C190.54 26.608 192.802 27.3973 193.954 28.976L194.274 27.312H203.682L201.122 41.968C201.036 42.3947 200.994 42.7573 200.994 43.056C200.994 44.208 201.484 44.784 202.466 44.784C204.471 44.784 205.815 43.056 206.498 39.6L208.226 30.704C208.354 30.0213 208.418 29.2747 208.418 28.464C208.418 27.6533 208.183 26.7147 207.714 25.648C207.244 24.5813 206.54 23.7493 205.602 23.152C204.706 22.512 203.383 22.0213 201.634 21.68C199.415 21.296 197.559 21.104 196.066 21.104C194.53 21.104 193.143 21.104 191.906 21.104ZM186.658 45.232C188.322 45.232 189.58 44.656 190.434 43.504L191.586 36.976C191.287 36.0373 190.199 35.568 188.322 35.568C187.554 35.568 186.892 35.824 186.338 36.336C185.783 36.848 185.42 37.5307 185.25 38.384L184.482 42.544C184.439 42.7573 184.418 43.056 184.418 43.44C184.418 43.824 184.61 44.2293 184.994 44.656C185.378 45.04 185.932 45.232 186.658 45.232Z" fill="#FA3E3E"/>
<path d="M251.773 58.672C248.402 61.488 243.623 62.896 237.437 62.896C231.25 62.896 226.962 61.4667 224.573 58.608C222.866 56.6453 222.013 53.936 222.013 50.48C222.013 48.944 222.183 47.2587 222.525 45.424L227.709 15.92H239.229L234.045 45.168C233.874 46.2347 233.789 47.344 233.789 48.496C233.789 51.4827 235.581 52.976 239.165 52.976C241.298 52.976 243.005 52.4213 244.285 51.312C245.565 50.2027 246.461 48.1547 246.973 45.168L252.157 15.92H263.677L258.493 45.424C257.426 51.3973 255.186 55.8133 251.773 58.672ZM296.471 37.872C296.471 39.28 296.044 40.5813 295.191 41.776H284.695C285.036 41.52 285.207 41.0933 285.207 40.496C285.207 39.8987 284.865 39.4293 284.183 39.088C283.5 38.704 282.625 38.512 281.559 38.512C278.359 38.512 276.759 39.4933 276.759 41.456C276.759 42.224 277.356 42.7787 278.551 43.12C279.745 43.4613 281.196 43.7387 282.903 43.952C284.609 44.1653 286.316 44.4853 288.023 44.912C289.729 45.296 291.18 46.0853 292.375 47.28C293.569 48.4747 294.167 50.0747 294.167 52.08C294.167 55.6213 292.737 58.3093 289.879 60.144C287.063 61.9787 282.945 62.896 277.527 62.896C272.108 62.896 268.311 62.0213 266.135 60.272C264.428 58.9067 263.575 57.0293 263.575 54.64C263.575 53.9573 263.639 53.2533 263.767 52.528L274.455 52.4C274.369 52.9973 274.711 53.5307 275.479 54C276.289 54.4267 277.463 54.64 278.999 54.64C280.535 54.64 281.644 54.4907 282.327 54.192C283.009 53.8507 283.351 53.232 283.351 52.336C283.351 51.7387 282.753 51.3333 281.559 51.12C280.364 50.864 278.892 50.6507 277.143 50.48C275.436 50.3093 273.708 50.032 271.959 49.648C270.252 49.264 268.801 48.4533 267.607 47.216C266.412 45.9787 265.815 44.3573 265.815 42.352C265.815 38.4693 267.308 35.4827 270.295 33.392C273.324 31.3013 277.676 30.256 283.351 30.256C292.097 30.256 296.471 32.7947 296.471 37.872Z" fill="#4147D7"/>
<defs>
<linearGradient id="paint0_linear_92_4" x1="0" y1="85" x2="150" y2="85" gradientUnits="userSpaceOnUse">
<stop stop-color="#D1DF2E"/>
<stop offset="1" stop-color="#FF9C29"/>
</linearGradient>
</defs>
</svg>
